<?xml version="1.0" encoding="utf-8"?>
<!-- Generator: Adobe Illustrator 26.3.1, SVG Export Plug-In . SVG Version: 6.00 Build 0)  -->
<svg version="1.1" id="Layer_1" xmlns="http://www.w3.org/2000/svg" xmlns:xlink="http://www.w3.org/1999/xlink" x="0px" y="0px"
	 viewBox="0 0 44 16" style="enable-background:new 0 0 44 16;" xml:space="preserve">
<style type="text/css">
	.st0{fill:#F16434;}
	.st1{fill:#FFFFFF;}
	.st2{font-family:'MyriadPro-Regular';}
	.st3{font-size:8.8577px;}
</style>
<path class="st0" d="M41.8,15H2.2C1.54,15,1,14.46,1,13.8V2.2C1,1.54,1.54,1,2.2,1h39.6C42.46,1,43,1.54,43,2.2v11.6
	C43,14.46,42.46,15,41.8,15z"/>
<path class="st1" d="M6.81,4.16L7.05,5.2c-1.22,0-4.17,0-4.17,0s0.07,0.31,0.1,0.35c0.1,0.17,0.21,0.38,0.35,0.52
	c0.66,0.76,1.81,1.08,2.75,1.25C6.74,7.46,7.4,7.5,8.06,7.53l0.76,2.05h0.42l0.24,0.66H9.14l-0.59,1.91h5.8l-0.59-1.91h-0.35
	l0.24-0.66h0.42c0,0,0.35-2.12,1.42-3.09c1.04-0.97,2.33-1.11,2.33-1.11V4.16H6.81z M12.65,9.41c-0.28,0.17-0.59,0.17-0.8,0.31
	C11.71,9.79,11.64,10,11.64,10c-0.14-0.31-0.31-0.42-0.52-0.49c-0.21-0.07-0.59-0.03-1.11-0.49C9.66,8.71,9.62,8.29,9.66,8.09V8.05
	c0-0.03,0-0.03,0-0.07s0-0.07,0.03-0.1l0,0l0,0c0.07-0.21,0.24-0.42,0.59-0.56c0,0-0.24,0.35,0,0.7c0.14,0.21,0.42,0.31,0.66,0.17
	c0.1-0.07,0.17-0.21,0.21-0.31c0.07-0.24,0.07-0.49-0.14-0.66c-0.31-0.28-0.38-0.66-0.17-0.9c0,0,0.07,0.31,0.38,0.28
	c0.21,0,0.21-0.07,0.14-0.14c-0.03-0.1-0.49-0.76,0.17-1.25c0,0,0.42-0.28,0.9-0.24c-0.28,0.03-0.59,0.21-0.7,0.49c0,0,0,0,0,0.03
	c-0.1,0.28-0.03,0.59,0.17,0.87c0.14,0.21,0.31,0.38,0.38,0.66c-0.1-0.03-0.17,0-0.24,0.07c-0.07,0.07-0.1,0.21-0.07,0.31
	c0.03,0.07,0.1,0.14,0.17,0.14c0.03,0,0.03,0,0.07,0h0.03c0.1-0.03,0.17-0.17,0.14-0.28c0.07,0.07,0.1,0.24,0.07,0.35
	c0,0.1-0.07,0.21-0.1,0.28c-0.03,0.07-0.1,0.14-0.14,0.21c-0.03,0.07-0.07,0.14-0.07,0.21c0,0.07,0,0.17,0.03,0.24
	c0.14,0.21,0.42,0,0.49-0.17c0.1-0.21,0.07-0.45-0.07-0.66c0,0,0.24,0.14,0.42,0.63C13.17,8.75,12.92,9.23,12.65,9.41z"/>
<text transform="matrix(1 0 0 1 19.0288 11.4905)" class="st1 st2 st3">Install</text>
</svg>
