<?xml version="1.0" encoding="utf-8"?>
<!-- Generator: Adobe Illustrator 26.3.1, SVG Export Plug-In . SVG Version: 6.00 Build 0)  -->
<svg version="1.1" id="Layer_1" xmlns="http://www.w3.org/2000/svg" xmlns:xlink="http://www.w3.org/1999/xlink" x="0px" y="0px"
	 viewBox="0 0 5.45 2" style="enable-background:new 0 0 5.45 2;" xml:space="preserve">
<style type="text/css">
	.st0{fill:#F16434;}
	.st1{fill:#FFFFFF;}
	.st2{font-family:'MyriadPro-Regular';}
	.st3{font-size:1.0545px;}
</style>
<path class="st0" d="M4.98,1.83H0.47c-0.14,0-0.25-0.11-0.25-0.25V0.41c0-0.14,0.11-0.25,0.25-0.25h4.51c0.14,0,0.25,0.11,0.25,0.25
	v1.18C5.22,1.72,5.11,1.83,4.98,1.83z"/>
<path class="st1" d="M0.91,0.54l0.03,0.12c-0.14,0-0.5,0-0.5,0S0.46,0.7,0.46,0.71C0.47,0.73,0.48,0.75,0.5,0.77
	C0.58,0.86,0.72,0.9,0.83,0.92c0.08,0.02,0.16,0.02,0.24,0.02l0.09,0.24H1.2l0.03,0.08H1.19L1.12,1.49h0.69L1.74,1.27H1.7l0.03-0.08
	h0.05c0,0,0.04-0.25,0.17-0.37C2.07,0.7,2.23,0.69,2.23,0.69V0.54H0.91z M1.61,1.17C1.58,1.19,1.54,1.19,1.51,1.2
	C1.5,1.21,1.49,1.24,1.49,1.24C1.47,1.2,1.45,1.19,1.43,1.18c-0.02-0.01-0.07,0-0.13-0.06C1.25,1.08,1.25,1.04,1.25,1.01v0
	c0,0,0,0,0-0.01s0-0.01,0-0.01l0,0l0,0c0.01-0.02,0.03-0.05,0.07-0.07c0,0-0.03,0.04,0,0.08c0.02,0.02,0.05,0.04,0.08,0.02
	C1.42,1.01,1.43,1,1.43,0.99c0.01-0.03,0.01-0.06-0.02-0.08C1.38,0.87,1.37,0.83,1.39,0.8c0,0,0.01,0.04,0.05,0.03
	c0.02,0,0.02-0.01,0.02-0.02c0-0.01-0.06-0.09,0.02-0.15c0,0,0.05-0.03,0.11-0.03c-0.03,0-0.07,0.02-0.08,0.06c0,0,0,0,0,0
	c-0.01,0.03,0,0.07,0.02,0.1c0.02,0.02,0.04,0.05,0.05,0.08c-0.01,0-0.02,0-0.03,0.01C1.53,0.9,1.53,0.92,1.53,0.93
	c0,0.01,0.01,0.02,0.02,0.02c0,0,0,0,0.01,0h0c0.01,0,0.02-0.02,0.02-0.03c0.01,0.01,0.01,0.03,0.01,0.04
	c0,0.01-0.01,0.02-0.01,0.03c0,0.01-0.01,0.02-0.02,0.02S1.55,1.03,1.55,1.04c0,0.01,0,0.02,0,0.03c0.02,0.02,0.05,0,0.06-0.02
	c0.01-0.02,0.01-0.05-0.01-0.08c0,0,0.03,0.02,0.05,0.07C1.67,1.09,1.64,1.15,1.61,1.17z"/>
<text transform="matrix(1 0 0 1 2.3692 1.4155)" class="st1 st2 st3">Install</text>
</svg>
